<?xml version="1.0" encoding="iso-8859-1"?>
<!-- Generator: Adobe Illustrator 19.0.0, SVG Export Plug-In . SVG Version: 6.00 Build 0)  -->
<svg version="1.1" id="Capa_1" xmlns="http://www.w3.org/2000/svg" xmlns:xlink="http://www.w3.org/1999/xlink" x="0px" y="0px"
	 viewBox="0 0 60 60" style="enable-background:new 0 0 60 60;" xml:space="preserve">
<g>
	<g>
		<path d="M44.9,10.7v-0.1c-0.1-0.1-0.1-0.2-0.2-0.3l-10-10c-0.1-0.1-0.2-0.1-0.3-0.2h-0.1C34.2,0.1,34.1,0,34,0l0,0H1
			C0.4,0,0,0.4,0,1v58c0,0.6,0.4,1,1,1h43c0.6,0,1-0.4,1-1V11l0,0C45,10.9,45,10.8,44.9,10.7z M41.6,10H35V3.4L41.6,10z M2,58V2h31
			v9c0,0.6,0.4,1,1,1h9v46H2z"/>
		<rect x="5" y="6" width="6" height="2"/>
		<rect x="5" y="11" width="13" height="2"/>
		<rect x="5" y="46" width="22" height="2"/>
		<rect x="5" y="52" width="35" height="2"/>
		<path d="M6,42h16c0.6,0,1-0.4,1-1v-8c0-0.6-0.4-1-1-1h-7v-5h7c0.6,0,1-0.4,1-1v-8c0-0.6-0.4-1-1-1H6c-0.6,0-1,0.4-1,1v8
			c0,0.6,0.4,1,1,1h7v5H6c-0.6,0-1,0.4-1,1v8C5,41.6,5.4,42,6,42z M7,19h14v6H7V19z M7,34h14v6H7V34z"/>
		<rect x="32" y="46" width="8" height="2"/>
		<rect x="28" y="40" width="12" height="2"/>
		<rect x="28" y="34" width="12" height="2"/>
		<rect x="28" y="28" width="12" height="2"/>
		<rect x="28" y="22" width="12" height="2"/>
		<rect x="28" y="17" width="12" height="2"/>
		<path d="M58,26v29h-2v-5V12c0-0.2-0.1-0.5-0.2-0.6l-2.9-8.7C52.8,2.3,52.4,2,52,2s-0.8,0.3-0.9,0.7l-2.9,8.7
			C48.1,11.6,48,11.8,48,12v38v9c0,0.6,0.4,1,1,1h6c0.6,0,1-0.4,1-1v-2h3c0.6,0,1-0.4,1-1V26H58z M50,13h4v36h-4V13z M52,6.2
			l1.6,4.8h-3.2L52,6.2z M54,58h-4v-7h4V58z"/>
	</g>
</g>
<g>
</g>
<g>
</g>
<g>
</g>
<g>
</g>
<g>
</g>
<g>
</g>
<g>
</g>
<g>
</g>
<g>
</g>
<g>
</g>
<g>
</g>
<g>
</g>
<g>
</g>
<g>
</g>
<g>
</g>
</svg>
